<svg width="57" height="57" viewBox="0 0 57 57" fill="none" xmlns="http://www.w3.org/2000/svg">
<g id="vuesax/outline/arrow-down">
<path id="Vector" d="M27.4902 49.8291L13.3895 35.5082C12.7159 34.824 12.7159 33.6915 13.3895 33.0073C14.0632 32.3231 15.1782 32.3231 15.8519 33.0073L28.7214 46.0778L41.5909 33.0073C42.2645 32.3231 43.3796 32.3231 44.0532 33.0073C44.7269 33.6915 44.7269 34.824 44.0532 35.5082L29.9526 49.8291C29.6041 50.183 29.1628 50.3482 28.7214 50.3482C28.28 50.3482 27.8386 50.183 27.4902 49.8291Z" fill="#142D47"/>
<path id="Vector_2" d="M26.981 48.1778V8.47065C26.981 7.50334 27.7708 6.70117 28.7232 6.70117C29.6756 6.70117 30.4655 7.50334 30.4655 8.47065V48.1778C30.4655 49.1451 29.6756 49.9472 28.7232 49.9472C27.7708 49.9472 26.981 49.1451 26.981 48.1778Z" fill="#142D47"/>
</g>
</svg>
