<svg width="56" height="58" viewBox="0 0 56 58" fill="none" xmlns="http://www.w3.org/2000/svg">
<g id="vuesax/outline/arrow-down">
<path id="Vector" d="M26.8811 50.2823L12.7804 35.9613C12.1067 35.2771 12.1067 34.1446 12.7804 33.4604C13.4541 32.7762 14.5691 32.7762 15.2428 33.4604L28.1123 46.531L40.9817 33.4604C41.6554 32.7762 42.7704 32.7762 43.4441 33.4604C44.1178 34.1446 44.1178 35.2771 43.4441 35.9613L29.3435 50.2823C28.995 50.6362 28.5536 50.8013 28.1123 50.8013C27.6709 50.8013 27.2295 50.6362 26.8811 50.2823Z" fill="#FFE100"/>
<path id="Vector_2" d="M26.3721 48.6309V8.92378C26.3721 7.95646 27.1619 7.1543 28.1143 7.1543C29.0668 7.1543 29.8566 7.95646 29.8566 8.92378V48.6309C29.8566 49.5982 29.0668 50.4004 28.1143 50.4004C27.1619 50.4004 26.3721 49.5982 26.3721 48.6309Z" fill="#FFE100"/>
</g>
</svg>
