<svg width="57" height="57" viewBox="0 0 57 57" fill="none" xmlns="http://www.w3.org/2000/svg">
<g id="vuesax/outline/arrow-down">
<path id="Vector" d="M27.3911 49.7979L13.2904 35.4769C12.6167 34.7927 12.6167 33.6602 13.2904 32.976C13.9641 32.2918 15.0791 32.2918 15.7528 32.976L28.6223 46.0466L41.4917 32.976C42.1654 32.2918 43.2805 32.2918 43.9541 32.976C44.6278 33.6602 44.6278 34.7927 43.9541 35.4769L29.8535 49.7979C29.505 50.1518 29.0636 50.3169 28.6223 50.3169C28.1809 50.3169 27.7395 50.1518 27.3911 49.7979Z" fill="#FFE100"/>
<path id="Vector_2" d="M26.8818 48.1465V8.4394C26.8818 7.47209 27.6717 6.66992 28.6241 6.66992C29.5765 6.66992 30.3663 7.47209 30.3663 8.4394V48.1465C30.3663 49.1138 29.5765 49.916 28.6241 49.916C27.6717 49.916 26.8818 49.1138 26.8818 48.1465Z" fill="#FFE100"/>
</g>
</svg>
