<svg width="50" height="43" viewBox="0 0 50 43" fill="none" xmlns="http://www.w3.org/2000/svg">
<g id="Group 20">
<path id="Vector 4" d="M7.26698 27.5026L15.6409 36.285L9.92212 41.5953L1.75244 33.2214L7.26698 27.5026ZM7.26698 27.5026L15.7432 21.1711C22.1766 19.7416 27.9977 20.5586 33.0018 22.8052C33.8644 24.4815 33.6064 25.2142 32.7972 26.89C30.7548 29.1367 29.3251 28.9323 26.4657 28.9323C24.176 28.8199 23.0424 28.5191 21.1554 27.5026" stroke="white" stroke-width="2.71792" stroke-linecap="round" stroke-linejoin="round"/>
<path id="Vector 5" d="M15.8448 36.0806C20.6639 37.0812 23.5075 37.2923 28.7121 37.306C36.5279 33.6904 40.5786 31.1985 47.2981 26.0727C48.4708 23.4051 48.0621 22.3103 45.4599 21.1709C40.9011 21.2437 38.3535 21.6446 33.8182 23.2133" stroke="white" stroke-width="2.71792"/>
<path id="Vector 6" d="M15.2324 14.8396C15.2324 14.8396 19.7137 12.4745 22.5851 10.959M22.5851 10.959C22.449 9.39318 23.4493 7.00763 24.6276 5.24026C26.2615 2.78935 27.0785 2.78933 28.7124 2.17663C30.3463 1.56392 34.4312 1.9724 35.6566 2.17663C36.8821 2.38085 40.3542 3.60627 41.9881 4.01475C43.6221 4.42324 44.2348 3.19778 44.8475 3.60627C45.4602 4.01475 43.2136 7.28257 42.8051 7.89535C42.3966 8.50813 39.5372 11.9801 38.7203 12.5929C37.9033 13.2057 33.2057 14.8396 32.3888 14.8396C31.5718 14.8396 26.67 14.8396 24.6276 13.6141C22.5851 12.3886 22.5851 10.959 22.5851 10.959ZM22.5851 10.959C22.5851 10.959 28.7124 9.52934 31.3675 8.91661C34.0227 8.30388 33.2057 8.50813 33.2057 8.50813" stroke="white" stroke-width="2.71792" stroke-linecap="round"/>
</g>
</svg>
