<svg height="56" viewBox="0 0 56 56" width="56" xmlns="http://www.w3.org/2000/svg"><path d="m36.0057262 0c7.728824 0 13.9942738 6.26927476 13.9942738 13.9942738v22.0114524c0 7.728824-6.2692748 13.9942738-13.9942738 13.9942738h-22.0114524c-7.72882399 0-13.9942738-6.2692748-13.9942738-13.9942738v-22.0114524c0-7.72882399 6.26927476-13.9942738 13.9942738-13.9942738zm-11.0057262 12c-7.1797017 0-13 5.8202983-13 13s5.8202983 13 13 13 13-5.8202983 13-13-5.8202983-13-13-13zm0 4c4.9705627 0 9 4.0294373 9 9s-4.0294373 9-9 9-9-4.0294373-9-9 4.0294373-9 9-9zm14.5-9c-1.9329966 0-3.5 1.56700338-3.5 3.5 0 1.9329966 1.5670034 3.5 3.5 3.5s3.5-1.5670034 3.5-3.5c0-1.93299662-1.5670034-3.5-3.5-3.5z" fill-rule="evenodd" transform="translate(3 3)"/></svg>